<svg width="17" height="16" viewBox="0 0 17 16" fill="none" xmlns="http://www.w3.org/2000/svg">
    <path
        d="M10.8869 10H12.0869C12.2869 10 12.4869 9.8 12.4869 9.6V5.4C12.4869 5.2 12.2869 5 12.0869 5H10.8869C10.6869 5 10.4869 5.2 10.4869 5.4V9.6C10.4869 9.8 10.6869 10 10.8869 10ZM13.8869 10H15.0869C15.2869 10 15.4869 9.8 15.4869 9.6V2.4C15.4869 2.2 15.2869 2 15.0869 2H13.8869C13.6869 2 13.4869 2.2 13.4869 2.4V9.6C13.4869 9.8 13.6869 10 13.8869 10ZM4.88694 10H6.08694C6.28694 10 6.48694 9.8 6.48694 9.6V7.4C6.48694 7.2 6.28694 7 6.08694 7H4.88694C4.68694 7 4.48694 7.2 4.48694 7.4V9.6C4.48694 9.8 4.68694 10 4.88694 10ZM7.88694 10H9.08694C9.28694 10 9.48694 9.8 9.48694 9.6V3.4C9.48694 3.2 9.28694 3 9.08694 3H7.88694C7.68694 3 7.48694 3.2 7.48694 3.4V9.6C7.48694 9.8 7.68694 10 7.88694 10ZM15.9869 12H2.48694V2.5C2.48694 2.22375 2.26319 2 1.98694 2H0.986938C0.710688 2 0.486938 2.22375 0.486938 2.5V13C0.486938 13.5522 0.934751 14 1.48694 14H15.9869C16.2632 14 16.4869 13.7763 16.4869 13.5V12.5C16.4869 12.2237 16.2632 12 15.9869 12Z"
        fill="#4F46E5" />
</svg>