<svg width="17" height="16" viewBox="0 0 17 16" fill="none" xmlns="http://www.w3.org/2000/svg">
    <path
        d="M13.5641 7H12.8141V4.75C12.8141 2.13125 10.6828 0 8.06409 0C5.44534 0 3.31409 2.13125 3.31409 4.75V7H2.56409C1.73596 7 1.06409 7.67188 1.06409 8.5V14.5C1.06409 15.3281 1.73596 16 2.56409 16H13.5641C14.3922 16 15.0641 15.3281 15.0641 14.5V8.5C15.0641 7.67188 14.3922 7 13.5641 7ZM10.3141 7H5.81409V4.75C5.81409 3.50937 6.82346 2.5 8.06409 2.5C9.30471 2.5 10.3141 3.50937 10.3141 4.75V7Z"
        fill="#4F46E5" />
</svg>