<svg width="17" height="16" viewBox="0 0 17 16" fill="none" xmlns="http://www.w3.org/2000/svg">
    <g clipPath="url(#clip0_331_47337)">
        <path
            d="M2.68662 7.1999C3.56912 7.1999 4.28662 6.4824 4.28662 5.5999C4.28662 4.7174 3.56912 3.9999 2.68662 3.9999C1.80412 3.9999 1.08662 4.7174 1.08662 5.5999C1.08662 6.4824 1.80412 7.1999 2.68662 7.1999ZM13.8866 7.1999C14.7691 7.1999 15.4866 6.4824 15.4866 5.5999C15.4866 4.7174 14.7691 3.9999 13.8866 3.9999C13.0041 3.9999 12.2866 4.7174 12.2866 5.5999C12.2866 6.4824 13.0041 7.1999 13.8866 7.1999ZM14.6866 7.9999H13.0866C12.6466 7.9999 12.2491 8.1774 11.9591 8.4649C12.9666 9.0174 13.6816 10.0149 13.8366 11.1999H15.4866C15.9291 11.1999 16.2866 10.8424 16.2866 10.3999V9.5999C16.2866 8.7174 15.5691 7.9999 14.6866 7.9999ZM8.28662 7.9999C9.83412 7.9999 11.0866 6.7474 11.0866 5.1999C11.0866 3.6524 9.83412 2.3999 8.28662 2.3999C6.73912 2.3999 5.48662 3.6524 5.48662 5.1999C5.48662 6.7474 6.73912 7.9999 8.28662 7.9999ZM10.2066 8.7999H9.99912C9.47912 9.0499 8.90162 9.1999 8.28662 9.1999C7.67162 9.1999 7.09662 9.0499 6.57412 8.7999H6.36662C4.77662 8.7999 3.48662 10.0899 3.48662 11.6799V12.3999C3.48662 13.0624 4.02412 13.5999 4.68662 13.5999H11.8866C12.5491 13.5999 13.0866 13.0624 13.0866 12.3999V11.6799C13.0866 10.0899 11.7966 8.7999 10.2066 8.7999ZM4.61412 8.4649C4.32412 8.1774 3.92662 7.9999 3.48662 7.9999H1.88662C1.00412 7.9999 0.286621 8.7174 0.286621 9.5999V10.3999C0.286621 10.8424 0.644121 11.1999 1.08662 11.1999H2.73412C2.89162 10.0149 3.60662 9.0174 4.61412 8.4649Z"
            fill="#4F46E5" />
    </g>
    <defs>
        <clipPath id="clip0_331_47337">
            <rect width="16" height="16" fill="white" transform="translate(0.286621)" />
        </clipPath>
    </defs>
</svg>