<svg width="16" height="16" viewBox="0 0 16 16" fill="none" xmlns="http://www.w3.org/2000/svg">
<path d="M7.75 0C3.46875 0 0 3.46875 0 7.75C0 12.0312 3.46875 15.5 7.75 15.5C12.0312 15.5 15.5 12.0312 15.5 7.75C15.5 3.46875 12.0312 0 7.75 0ZM7.75 3C9.26875 3 10.5 4.23125 10.5 5.75C10.5 7.26875 9.26875 8.5 7.75 8.5C6.23125 8.5 5 7.26875 5 5.75C5 4.23125 6.23125 3 7.75 3ZM7.75 13.75C5.91563 13.75 4.27187 12.9187 3.17188 11.6187C3.75938 10.5125 4.90938 9.75 6.25 9.75C6.325 9.75 6.4 9.7625 6.47188 9.78438C6.87813 9.91563 7.30312 10 7.75 10C8.19687 10 8.625 9.91563 9.02812 9.78438C9.1 9.7625 9.175 9.75 9.25 9.75C10.5906 9.75 11.7406 10.5125 12.3281 11.6187C11.2281 12.9187 9.58438 13.75 7.75 13.75Z" fill="white"/>
</svg>
