<svg version="1.1" xmlns="http://www.w3.org/2000/svg" width="320" height="320">
<path d="M0 0 C105.6 0 211.2 0 320 0 C320 105.6 320 211.2 320 320 C214.4 320 108.8 320 0 320 C0 214.4 0 108.8 0 0 Z " fill="#FEFEFE" transform="translate(0,0)"/>
<path d="M0 0 C1.45116211 -0.01836914 1.45116211 -0.01836914 2.93164062 -0.03710938 C4.32479492 -0.04000977 4.32479492 -0.04000977 5.74609375 -0.04296875 C7.02311157 -0.04913208 7.02311157 -0.04913208 8.32592773 -0.05541992 C10.5625 0.1875 10.5625 0.1875 13.5625 2.1875 C13.9375 5.1875 13.9375 5.1875 13.5625 8.1875 C9.55106691 10.86178873 7.27936154 9.98856214 2.5 9.6875 C-10.44820713 10.63631344 -10.44820713 10.63631344 -25.4375 29.1875 C38.2525 29.1875 101.9425 29.1875 167.5625 29.1875 C152.79814222 11.39795697 152.79814222 11.39795697 142.44140625 9.31640625 C139.24815171 9.34937437 139.24815171 9.34937437 136.125 9.75 C133.98100118 9.86578866 131.83644206 9.97175271 129.69140625 10.06640625 C128.77431885 10.1547876 127.85723145 10.24316895 126.91235352 10.33422852 C124.5625 10.1875 124.5625 10.1875 122.73022461 8.89038086 C121.5625 7.1875 121.5625 7.1875 121.75 4.0625 C122.018125 3.11375 122.28625 2.165 122.5625 1.1875 C127.10183582 -1.08216791 133.20466562 -0.22235827 138.1875 -0.3125 C139.44691406 -0.36664063 140.70632812 -0.42078125 142.00390625 -0.4765625 C143.23238281 -0.49460938 144.46085938 -0.51265625 145.7265625 -0.53125 C147.40419678 -0.57668945 147.40419678 -0.57668945 149.11572266 -0.62304688 C153.37063606 0.37754191 155.11484035 2.14792056 158.21286011 5.12533569 C160.88808779 7.47325252 163.72615223 9.20074221 166.75097656 11.07446289 C175.6477056 17.13443471 183.63755438 24.52231891 186.3421936 35.29225922 C189.35569105 53.19151469 188.19502364 71.91925901 187.53279829 89.99323523 C187.26746212 97.40981713 187.16991387 104.82621816 187.07626867 112.24659812 C186.92217203 123.76314232 186.69278762 135.27986168 186.29980469 146.79077148 C186.27131439 147.92249786 186.2428241 149.05422424 186.21347046 150.22024536 C186.15309097 151.76045097 186.15309097 151.76045097 186.0914917 153.33177185 C186.06178661 154.22662513 186.03208153 155.1214784 186.00147629 156.04344845 C185.5625 158.1875 185.5625 158.1875 182.5625 160.1875 C179.5810328 160.38180658 176.69318811 160.45691017 173.71128845 160.44146729 C172.33748664 160.44614726 172.33748664 160.44614726 170.93593127 160.45092177 C167.85427688 160.45892554 164.77281811 160.45256888 161.69116211 160.44628906 C159.48709497 160.44899785 157.28302874 160.45255814 155.07896423 160.45690918 C149.08330857 160.46604828 143.08772152 160.4624828 137.09206462 160.45615101 C130.82826596 160.45109952 124.56447332 160.45578003 118.30067444 160.45892334 C107.1069917 160.46279869 95.91333424 160.45657073 84.71965755 160.44640467 C74.56365918 160.43746673 64.40770653 160.43902272 54.25170898 160.44824219 C42.46514985 160.4589368 30.67861287 160.46293391 18.89204794 160.45701766 C12.65007114 160.45389301 6.40812585 160.4535022 0.16615105 160.46009064 C-5.70001182 160.46584958 -11.56608798 160.46189392 -17.43224144 160.45030212 C-19.59061667 160.44764786 -21.74899914 160.44843359 -23.90737152 160.45282745 C-26.84277168 160.45825416 -29.77789012 160.45148397 -32.71327209 160.44146729 C-33.57697247 160.44592873 -34.44067285 160.45039017 -35.33054596 160.45498681 C-41.20919979 160.41580021 -41.20919979 160.41580021 -43.4375 158.1875 C-43.77018833 156.06020832 -43.77018833 156.06020832 -43.88661194 153.37214661 C-43.93416122 152.35401382 -43.98171051 151.33588104 -44.03070068 150.28689575 C-44.09296844 148.60344559 -44.09296844 148.60344559 -44.15649414 146.88598633 C-44.23162483 145.11681602 -44.23162483 145.11681602 -44.30827332 143.31190491 C-44.74857733 132.32682252 -45.00868888 121.33619709 -45.2079401 110.3443346 C-45.34460774 102.97323666 -45.53884802 95.61371843 -45.88598633 88.24926758 C-48.35741177 34.79111195 -48.35741177 34.79111195 -34.41072369 18.92330074 C-24.34957998 8.45958322 -14.74903975 0.00978702 0 0 Z " fill="#4F46E5" transform="translate(66.4375,159.8125)"/>
<path d="M0 0 C2.5625 1.0625 2.5625 1.0625 3.5625 2.0625 C4.125 4.625 4.125 4.625 3.5625 8.0625 C1.78397577 10.25180013 -0.17191594 12.09653722 -2.2421875 14.01171875 C-4.20025628 15.84087553 -5.90686218 17.69945863 -7.625 19.75 C-8.88949447 21.19307912 -10.16145582 22.62962357 -11.4375 24.0625 C-11.89785645 24.58634277 -12.35821289 25.11018555 -12.83251953 25.64990234 C-14.42472194 27.43817641 -16.05207335 29.18873884 -17.6875 30.9375 C-18.43809692 31.79541138 -18.43809692 31.79541138 -19.20385742 32.6706543 C-23.97940038 37.6671697 -28.72879336 38.37437357 -35.4375 39.0625 C-36.56800781 39.18592773 -37.69851562 39.30935547 -38.86328125 39.43652344 C-43.76592501 39.94355581 -48.67205034 40.40013679 -53.58203125 40.83007812 C-55.37833984 41.00506836 -55.37833984 41.00506836 -57.2109375 41.18359375 C-58.28778809 41.2808374 -59.36463867 41.37808105 -60.47412109 41.47827148 C-66.39661618 42.64588812 -69.8679228 46.25012564 -73.75 50.625 C-74.22638916 51.15802734 -74.70277832 51.69105469 -75.19360352 52.24023438 C-76.15877224 53.32736518 -77.12000609 54.41800295 -78.07714844 55.51220703 C-79.29964023 56.90539133 -80.54309031 58.28011856 -81.7890625 59.65234375 C-86.91016736 65.56942558 -91.4375 72.94742263 -91.4375 81.0625 C-89.7875 81.7225 -88.1375 82.3825 -86.4375 83.0625 C-85.96183594 81.90234375 -85.96183594 81.90234375 -85.4765625 80.71875 C-81.79757976 72.50709792 -77.71280076 68.17931544 -70.4375 63.0625 C-68.13186923 61.15451758 -65.83390607 59.23809084 -63.54296875 57.3125 C-60.93742785 55.76561115 -59.41806557 55.58955075 -56.4375 56.0625 C-54.4375 59.0625 -54.4375 59.0625 -54.38671875 61.890625 C-55.86870281 66.36412336 -58.52274616 68.10789972 -62.25 70.8125 C-62.87970703 71.29332031 -63.50941406 71.77414063 -64.15820312 72.26953125 C-68.8734962 75.82208154 -68.8734962 75.82208154 -71.56005859 76.96728516 C-73.97265882 78.37468757 -74.18274522 79.31499657 -74.89453125 81.9765625 C-75.97709002 85.63688648 -77.22633775 89.12540801 -78.69921875 92.6484375 C-79.09560547 93.59847656 -79.49199219 94.54851562 -79.90039062 95.52734375 C-80.726939 97.49154961 -81.55510274 99.4550764 -82.38476562 101.41796875 C-82.97354492 102.83142578 -82.97354492 102.83142578 -83.57421875 104.2734375 C-83.93217529 105.12212402 -84.29013184 105.97081055 -84.65893555 106.84521484 C-85.60315177 109.14259488 -85.60315177 109.14259488 -85.4375 112.0625 C-84.24125 112.165625 -83.045 112.26875 -81.8125 112.375 C-81.13960938 112.43300781 -80.46671875 112.49101563 -79.7734375 112.55078125 C-76.16063222 111.7955962 -73.82624158 109.75437091 -71.4375 107.0625 C-69.91539235 104.5415092 -68.82219613 101.9255665 -67.75 99.1875 C-67.46833984 98.50558594 -67.18667969 97.82367188 -66.89648438 97.12109375 C-66.06548436 95.1059667 -65.25020012 93.08506585 -64.4375 91.0625 C-61.74629346 84.37129346 -61.74629346 84.37129346 -59.4375 82.0625 C-57.42652406 82.32151137 -55.42661335 82.66938529 -53.4375 83.0625 C-45.19101762 83.82624221 -38.96536326 83.94057737 -32.2578125 78.73046875 C-30.6849572 77.28924726 -29.20680006 75.74593728 -27.75 74.1875 C-25.4375 72.0625 -25.4375 72.0625 -22.25 71.625 C-19.4375 72.0625 -19.4375 72.0625 -17.4375 74.0625 C-17.28149711 77.33856061 -17.9356495 79.37604509 -19.87109375 82.0234375 C-27.45160483 90.25010441 -36.11034668 94.36865328 -47.1875 94.9375 C-49.60731629 95.02217179 -52.01561853 95.05635309 -54.4375 95.0625 C-54.7675 97.0425 -55.0975 99.0225 -55.4375 101.0625 C-53.55292462 102.26778665 -51.65432415 103.45116449 -49.75 104.625 C-48.16638672 105.61693359 -48.16638672 105.61693359 -46.55078125 106.62890625 C-43.64915789 108.23370756 -43.64915789 108.23370756 -41.0625 108.0390625 C-37.24575413 106.61914216 -33.70627509 104.80617949 -30.125 102.875 C-29.36606445 102.46789795 -28.60712891 102.0607959 -27.82519531 101.64135742 C-15.48808338 94.91866793 -8.76082838 88.1475846 -3.4375 75.0625 C-3.16284912 73.81976318 -2.88819824 72.57702637 -2.60522461 71.29663086 C-0.24016942 65.05450898 5.78006972 63.07437537 11.45703125 60.33984375 C12.63714279 59.74949844 13.81725433 59.15915314 15.03312683 58.55091858 C17.52450828 57.30692083 20.02374809 56.08108813 22.53051758 54.8684082 C25.73616823 53.3166724 28.92189606 51.72836745 32.10297108 50.1269598 C35.15013594 48.597487 38.20997744 47.09438842 41.26953125 45.58984375 C42.41033646 45.01918686 43.55114166 44.44852997 44.72651672 43.86058044 C45.79750107 43.34576614 46.86848541 42.83095184 47.97192383 42.30053711 C48.90885574 41.84279404 49.84578766 41.38505096 50.81111145 40.91343689 C54.12181808 39.88951666 56.23601517 40.20132386 59.5625 41.0625 C60.5625 42.0625 60.5625 42.0625 61.125 44.8125 C60.5625 48.0625 60.5625 48.0625 59.11723328 49.30210876 C53.67085341 52.53724826 48.08169931 55.28858645 42.33203125 57.94140625 C40.37464822 58.87093809 38.41829734 59.80264598 36.46289062 60.73632812 C33.41680204 62.18851887 30.36765448 63.62836113 27.29907227 65.0324707 C13.68837608 70.55789571 13.68837608 70.55789571 4.88671875 81.46875 C4.43280938 83.33032911 3.99048852 85.19479116 3.5625 87.0625 C0.61578577 92.38003916 -2.8646108 97.03400237 -7.4375 101.0625 C-7.92992187 101.49691406 -8.42234375 101.93132812 -8.9296875 102.37890625 C-13.6711583 106.24583911 -18.93125561 109.07513596 -24.3125 111.9375 C-25.0746582 112.34323242 -25.83681641 112.74896484 -26.62207031 113.16699219 C-32.17697157 116.0625 -32.17697157 116.0625 -34.4375 116.0625 C-34.54296143 116.9405127 -34.64842285 117.81852539 -34.75708008 118.72314453 C-35.46573043 122.20104892 -36.5284142 124.44888259 -38.32421875 127.4921875 C-38.92669434 128.52408203 -39.52916992 129.55597656 -40.14990234 130.61914062 C-41.12757568 132.26172852 -41.12757568 132.26172852 -42.125 133.9375 C-43.13903928 135.66714372 -44.15307356 137.39679041 -45.16674805 139.12664795 C-46.21550237 140.91286535 -47.26854201 142.69649112 -48.32275391 144.47949219 C-51.0509161 149.09618882 -53.74921388 153.73012624 -56.44848633 158.36376953 C-57.67433898 160.46738726 -58.90199033 162.56995804 -60.1315918 164.67138672 C-60.68371338 165.6151416 -61.23583496 166.55889648 -61.8046875 167.53125 C-62.29050293 168.36076172 -62.77631836 169.19027344 -63.27685547 170.04492188 C-64.03508159 171.36296576 -64.75747845 172.7024569 -65.4375 174.0625 C-64.17292969 174.09988281 -62.90835938 174.13726562 -61.60546875 174.17578125 C-59.9452827 174.24143833 -58.28512778 174.30788576 -56.625 174.375 C-55.37493164 174.40883789 -55.37493164 174.40883789 -54.09960938 174.44335938 C-53.29716797 174.47880859 -52.49472656 174.51425781 -51.66796875 174.55078125 C-50.56038208 174.59005737 -50.56038208 174.59005737 -49.43041992 174.63012695 C-46.91765045 175.17528373 -45.97023069 176.02344535 -44.4375 178.0625 C-44.68203124 181.40442692 -45.04293557 182.66793557 -47.4375 185.0625 C-49.28380489 185.31697559 -49.28380489 185.31697559 -51.56809998 185.32319641 C-52.43317169 185.33028122 -53.29824341 185.33736603 -54.18952942 185.34466553 C-55.1407518 185.34218811 -56.09197418 185.33971069 -57.07202148 185.3371582 C-58.07211243 185.34226913 -59.07220337 185.34738007 -60.1026001 185.35264587 C-63.42132487 185.36659016 -66.7398431 185.36558146 -70.05859375 185.36328125 C-72.35783466 185.36716553 -74.65707484 185.37149964 -76.95631409 185.37626648 C-81.78087691 185.38373912 -86.60536657 185.38342986 -91.42993164 185.37817383 C-97.62211494 185.372378 -103.81399924 185.3893081 -110.00613308 185.4125185 C-114.75610616 185.42722808 -119.50600679 185.42813132 -124.25599861 185.42500877 C-126.5394252 185.42552339 -128.8228557 185.43078725 -131.1062603 185.44082069 C-134.29556759 185.45311385 -137.48428659 185.44643609 -140.67358398 185.43481445 C-141.62278214 185.44245819 -142.57198029 185.45010193 -143.54994202 185.45797729 C-144.41783356 185.45096298 -145.2857251 185.44394867 -146.17991638 185.4367218 C-146.93411078 185.43688954 -147.68830519 185.43705729 -148.46535397 185.43723011 C-150.99567708 184.95644003 -151.88462056 184.08399411 -153.4375 182.0625 C-153.8125 179.5 -153.8125 179.5 -153.4375 177.0625 C-150.25329155 174.93969437 -149.23212745 174.78230463 -145.55078125 174.6484375 C-144.61298828 174.60976562 -143.67519531 174.57109375 -142.70898438 174.53125 C-141.24428711 174.48484375 -141.24428711 174.48484375 -139.75 174.4375 C-138.76193359 174.39882812 -137.77386719 174.36015625 -136.75585938 174.3203125 C-134.31659293 174.22604133 -131.87733405 174.14043782 -129.4375 174.0625 C-130.19426025 173.62381592 -130.19426025 173.62381592 -130.96630859 173.17626953 C-133.25025301 171.84988762 -135.53139374 170.51875654 -137.8125 169.1875 C-138.6065625 168.72730469 -139.400625 168.26710937 -140.21875 167.79296875 C-141.35957031 167.12587891 -141.35957031 167.12587891 -142.5234375 166.4453125 C-143.2251709 166.03684082 -143.9269043 165.62836914 -144.64990234 165.20751953 C-146.4375 164.0625 -146.4375 164.0625 -148.4375 162.0625 C-148.08412803 158.34801244 -146.82897831 155.59418853 -144.98828125 152.38671875 C-144.47724854 151.48896729 -143.96621582 150.59121582 -143.43969727 149.66625977 C-142.60329712 148.22271118 -142.60329712 148.22271118 -141.75 146.75 C-141.16984131 145.73671631 -140.58968262 144.72343262 -139.99194336 143.67944336 C-138.14935571 140.46857064 -136.29537163 137.26455053 -134.4375 134.0625 C-133.85677734 133.06057617 -133.27605469 132.05865234 -132.67773438 131.02636719 C-129.21696278 125.06310106 -125.7377649 119.1107649 -122.25195312 113.16210938 C-118.48020656 106.71887816 -114.72545731 100.26571031 -110.96704102 93.81469727 C-110.41717529 92.87166748 -109.86730957 91.9286377 -109.30078125 90.95703125 C-108.81907471 90.13050049 -108.33736816 89.30396973 -107.84106445 88.45239258 C-106.87017652 86.79923169 -105.86891636 85.16367267 -104.84399414 83.54345703 C-103.48724649 81.15024931 -102.74634904 79.12563835 -102.0703125 76.47265625 C-98.62707508 64.08118079 -94.35967342 56.36730844 -85.00927734 47.60595703 C-81.78700465 44.4417433 -79.11598598 40.82363272 -76.33984375 37.26953125 C-72.49945704 32.8140518 -69.77624273 31.71481581 -64.0153656 31.24243164 C-63.17369339 31.1830542 -62.33202118 31.12367676 -61.46484375 31.0625 C-59.65930379 30.89671035 -57.8539696 30.72866729 -56.04882812 30.55859375 C-53.22164241 30.30408597 -50.39627496 30.06400446 -47.56469727 29.86376953 C-33.87460627 29.03822216 -33.87460627 29.03822216 -22.859375 21.63671875 C-21.33935251 19.81613649 -19.85962035 17.96054158 -18.4375 16.0625 C-17.21818119 14.65805597 -15.99120128 13.26014287 -14.75 11.875 C-14.21117187 11.25367188 -13.67234375 10.63234375 -13.1171875 9.9921875 C-12.28574219 9.03699219 -12.28574219 9.03699219 -11.4375 8.0625 C-10.78007812 7.30195312 -10.12265625 6.54140625 -9.4453125 5.7578125 C-4.23628439 0.07702335 -4.23628439 0.07702335 0 0 Z " fill="#5249E5" transform="translate(236.4375,-0.0625)"/>
<path d="M0 0 C69.63 0 139.26 0 211 0 C211 3.3 211 6.6 211 10 C210.13509477 10.00423194 209.27018953 10.00846388 208.37907505 10.01282406 C187.36547599 10.11598306 166.35191137 10.22459836 145.33837223 10.33933926 C135.1765211 10.39469378 125.01466646 10.44817938 114.8527832 10.49731445 C105.99904168 10.54012904 97.14532624 10.58640004 88.29162496 10.63687855 C83.60063996 10.66350152 78.9096602 10.68835505 74.2186451 10.70907402 C69.80858211 10.72860659 65.39856888 10.75274002 60.98855019 10.78049088 C59.36513418 10.78987928 57.74170723 10.79754807 56.11827469 10.80341911 C53.91152272 10.81165004 51.7048925 10.82591786 49.4981842 10.84178162 C48.26021623 10.84823417 47.02224825 10.85468672 45.74676609 10.8613348 C43.08871923 10.68776212 43.08871923 10.68776212 42 12 C41.83333333 15 41.83333333 15 42 18 C43.86638553 19.86638553 47.00812401 19.14523966 49.4981842 19.15821838 C50.52852104 19.16562535 50.52852104 19.16562535 51.57967275 19.17318195 C53.89824607 19.18862987 56.21679154 19.19693717 58.53540039 19.20532227 C60.19070178 19.21489507 61.8460007 19.22490479 63.501297 19.23532104 C68.00934269 19.26244097 72.51739894 19.28341203 77.02548146 19.30332303 C81.73139843 19.32513902 86.43728264 19.3525491 91.14317322 19.37937927 C100.06086259 19.42936567 108.97857008 19.47428236 117.89629501 19.51740164 C128.04608623 19.5667233 138.1958446 19.62166017 148.34560406 19.67708123 C169.23037211 19.79099253 190.11517152 19.89781155 211 20 C211.06058594 21.27617187 211.12117187 22.55234375 211.18359375 23.8671875 C211.26799568 25.53647016 211.35264386 27.20574037 211.4375 28.875 C211.47681641 29.71675781 211.51613281 30.55851562 211.55664062 31.42578125 C211.61948242 32.63427734 211.61948242 32.63427734 211.68359375 33.8671875 C211.72025146 34.61081543 211.75690918 35.35444336 211.79467773 36.12060547 C211.89955865 38.08864312 211.89955865 38.08864312 213 40 C141.72 40 70.44 40 -3 40 C-2.34 39.34 -1.68 38.68 -1 38 C-0.63168919 36.06742145 -0.63168919 36.06742145 -0.5859375 33.8671875 C-0.54726563 33.06152344 -0.50859375 32.25585938 -0.46875 31.42578125 C-0.4378125 30.58402344 -0.406875 29.74226563 -0.375 28.875 C-0.33632813 28.02550781 -0.29765625 27.17601562 -0.2578125 26.30078125 C-0.16343506 24.20088316 -0.08062414 22.10047109 0 20 C0.80743652 19.97494385 1.61487305 19.9498877 2.44677734 19.92407227 C6.08968917 19.80834513 9.73232726 19.68551365 13.375 19.5625 C14.64601563 19.52318359 15.91703125 19.48386719 17.2265625 19.44335938 C18.43828125 19.40146484 19.65 19.35957031 20.8984375 19.31640625 C22.57945557 19.26141968 22.57945557 19.26141968 24.29443359 19.20532227 C26.96712771 19.17403987 26.96712771 19.17403987 29 18 C29 16.02 29 14.04 29 12 C26.26321275 10.63160637 23.95735576 10.78365182 20.8984375 10.68359375 C19.68671875 10.64169922 18.475 10.59980469 17.2265625 10.55664062 C15.95554687 10.51732422 14.68453125 10.47800781 13.375 10.4375 C12.09625 10.39431641 10.8175 10.35113281 9.5 10.30664062 C6.33344652 10.20030114 3.16681247 10.09827167 0 10 C0 6.7 0 3.4 0 0 Z " fill="#FEFEFE" transform="translate(32,280)"/>
<path d="M0 0 C69.63 0 139.26 0 211 0 C211 3.3 211 6.6 211 10 C209.55117432 10.02505615 208.10234863 10.0501123 206.60961914 10.07592773 C201.25535603 10.16980686 195.9012286 10.27007441 190.54711914 10.37231445 C188.22586227 10.41573739 185.90457192 10.45740684 183.58325195 10.49731445 C180.25461722 10.5548394 176.92615215 10.61858425 173.59765625 10.68359375 C172.55287613 10.70030624 171.50809601 10.71701874 170.43165588 10.73423767 C169.47073532 10.75418289 168.50981476 10.77412811 167.51977539 10.79467773 C166.66928116 10.81022202 165.81878693 10.8257663 164.94252014 10.84178162 C162.99476202 10.78944829 162.99476202 10.78944829 162 12 C161.83333333 15 161.83333333 15 162 18 C163.59865963 19.59865963 165.30456032 19.16483531 167.51977539 19.20532227 C168.48069595 19.22526749 169.44161652 19.24521271 170.43165588 19.26576233 C171.476436 19.28247482 172.52121613 19.29918732 173.59765625 19.31640625 C174.66165146 19.33718735 175.72564667 19.35796844 176.82188416 19.37937927 C180.2353544 19.44499254 183.64890429 19.50381423 187.0625 19.5625 C189.37045109 19.60567403 191.678394 19.64928794 193.98632812 19.69335938 C199.65746955 19.80068589 205.32869143 19.90191976 211 20 C211 23.3 211 26.6 211 30 C141.37 30 71.74 30 0 30 C0 26.7 0 23.4 0 20 C0.75575506 19.99576806 1.51151012 19.99153612 2.29016685 19.98717594 C20.65869231 19.88398078 39.02717828 19.77535988 57.3956356 19.66066074 C66.278392 19.60532524 75.1611524 19.55184272 84.04394531 19.50268555 C91.78398152 19.45984771 99.52398812 19.41357074 107.2639786 19.36312145 C111.3642227 19.33651728 115.46446091 19.31166413 119.56473923 19.29092598 C123.42078586 19.27136884 127.27677611 19.24722785 131.13277245 19.21950912 C132.5509724 19.21013379 133.96918473 19.20246025 135.38740349 19.19658089 C137.31789453 19.18832801 139.24835399 19.1734623 141.17880249 19.15821838 C142.80207994 19.14853956 142.80207994 19.14853956 144.45815086 19.1386652 C146.99264477 19.16943948 146.99264477 19.16943948 149 18 C149 16.02 149 14.04 149 12 C146.30351502 10.65175751 144.19922562 10.85979095 141.17880249 10.84178162 C139.93917252 10.8319928 138.69954254 10.82220398 137.42234802 10.81211853 C136.0411686 10.80621397 134.65998877 10.80040355 133.27880859 10.79467773 C131.83025328 10.78510173 130.38170078 10.77509182 128.93315125 10.76467896 C124.99333063 10.7375937 121.05349799 10.71660378 117.11363554 10.69667697 C112.99896257 10.67483971 108.88432681 10.64743999 104.76968384 10.62062073 C96.97471638 10.57066322 89.1797283 10.52573576 81.38472044 10.48259836 C72.51178329 10.43325209 63.63888346 10.3783243 54.76598239 10.32291877 C36.51068957 10.20905179 18.25536154 10.10222304 0 10 C0 6.7 0 3.4 0 0 Z " fill="#FDFDFE" transform="translate(32,240)"/>
<path d="M0 0 C69.63 0 139.26 0 211 0 C211 3.3 211 6.6 211 10 C209.52612823 10.00808685 208.05225647 10.01617371 206.53372192 10.02450562 C192.67165867 10.10185238 178.80968674 10.18944335 164.94775581 10.28752708 C157.82049846 10.33769333 150.69325285 10.38413566 143.56591797 10.421875 C136.692942 10.45827789 129.82009836 10.50497399 122.94723129 10.55806351 C120.31970295 10.57665501 117.69214752 10.59174519 115.06457901 10.60334396 C111.39594739 10.62012517 107.7276078 10.64914036 104.05908203 10.68115234 C102.96288544 10.68331253 101.86668884 10.68547272 100.73727417 10.68769836 C99.74165466 10.69886185 98.74603516 10.71002533 97.72024536 10.7215271 C96.41775187 10.72982324 96.41775187 10.72982324 95.08894539 10.73828697 C92.78036128 10.81049254 92.78036128 10.81049254 91 13 C91.28983269 16.30683466 91.28983269 16.30683466 93 19 C94.5304346 19.10794968 96.0657961 19.14682988 97.59999084 19.15821838 C99.09135811 19.17290161 99.09135811 19.17290161 100.612854 19.18788147 C101.71264587 19.19363693 102.81243774 19.1993924 103.94555664 19.20532227 C105.67215767 19.22017166 105.67215767 19.22017166 107.43363953 19.23532104 C111.25912379 19.26704662 115.0846205 19.29173703 118.91015625 19.31640625 C121.55431959 19.33696624 124.19847957 19.35796244 126.84263611 19.37937927 C133.10412039 19.42935606 139.36563045 19.47427631 145.62716526 19.51740164 C152.75404844 19.5667315 159.88088492 19.62166534 167.00772297 19.67708123 C181.67177134 19.79097777 196.33586696 19.89760124 211 20 C211 23.3 211 26.6 211 30 C141.37 30 71.74 30 0 30 C0 26.7 0 23.4 0 20 C0.96022064 19.98969254 1.92044128 19.97938507 2.90975952 19.96876526 C11.94491344 19.87114359 20.97999676 19.7684203 30.01503563 19.66066074 C34.66038996 19.6054214 39.30575057 19.55199978 43.95117188 19.50268555 C48.43158181 19.45505691 52.91191382 19.40271465 57.39223099 19.34705925 C59.10428561 19.32662889 60.81636161 19.30791694 62.52845383 19.29092598 C64.920578 19.26689702 67.3125543 19.2368405 69.70458984 19.20532227 C70.41740616 19.1995668 71.13022247 19.19381134 71.86463928 19.18788147 C75.55649938 19.17943889 75.55649938 19.17943889 79 18 C79 16.02 79 14.04 79 12 C76.02332364 10.51166182 72.97080848 10.82105003 69.70458984 10.79467773 C68.95327286 10.78477814 68.20195587 10.77487854 67.4278717 10.76467896 C64.93892594 10.73303477 62.44996107 10.70829505 59.9609375 10.68359375 C58.23743182 10.66302674 56.51393121 10.64203033 54.79043579 10.62062073 C50.2497976 10.56537393 45.7091137 10.51597617 41.168396 10.46777344 C36.53670168 10.41757744 31.90507391 10.36188146 27.2734375 10.30664062 C18.18234849 10.19902716 9.09120175 10.09758928 0 10 C0 6.7 0 3.4 0 0 Z " fill="#FEFEFE" transform="translate(32,200)"/>
<path d="M0 0 C4.75 1.875 4.75 1.875 7 3 C5.46140066 7.82560702 3.79992165 12.52660724 1.8125 17.1875 C0.27101411 20.94450554 -0.43312436 23.88531858 0 28 C7.16460239 32.00566406 14.83243153 32.98100899 22.921875 31.4453125 C29.2719426 29.27089541 32.60264497 25.68987916 36 20 C36.74765625 20.40992187 37.4953125 20.81984375 38.265625 21.2421875 C39.25046875 21.78101562 40.2353125 22.31984375 41.25 22.875 C42.71179688 23.67550781 42.71179688 23.67550781 44.203125 24.4921875 C46.45130408 25.70419466 48.7072805 26.87547567 51 28 C50.41933397 31.80560234 49.33578266 34.526577 47.3671875 37.82421875 C46.81514648 38.75862793 46.26310547 39.69303711 45.69433594 40.65576172 C45.09395508 41.65623535 44.49357422 42.65670898 43.875 43.6875 C42.60589451 45.82890797 41.33769896 47.97085543 40.0703125 50.11328125 C39.07499512 51.79091553 39.07499512 51.79091553 38.05957031 53.50244141 C35.94438818 57.08206766 33.87047641 60.68466664 31.8046875 64.29296875 C31.46376068 64.88786606 31.12283386 65.48276337 30.77157593 66.09568787 C29.11134685 68.99390628 27.45426264 71.89385501 25.80029297 74.7956543 C25.20104004 75.84019775 24.60178711 76.88474121 23.984375 77.9609375 C23.45553711 78.88696777 22.92669922 79.81299805 22.38183594 80.76708984 C21 83 21 83 19 85 C-1.58399294 88.70991743 -15.91893875 84.00890127 -32.82470703 72.51220703 C-33.54255371 72.01317871 -34.26040039 71.51415039 -35 71 C-35.99 70.34 -36.98 69.68 -38 69 C-37.40978811 64.99837244 -36.15443329 62.14707221 -34.11328125 58.66796875 C-33.51136963 57.63381836 -32.90945801 56.59966797 -32.28930664 55.53417969 C-31.63696045 54.42977539 -30.98461426 53.32537109 -30.3125 52.1875 C-29.63532009 51.02936065 -28.95881589 49.87082597 -28.28295898 48.71191406 C-26.88716406 46.32111719 -25.48737237 43.93273428 -24.08398438 41.54638672 C-21.492246 37.13889844 -18.91793283 32.72128734 -16.34301758 28.30395508 C-15.16669823 26.28632464 -13.98946888 24.26922444 -12.8112793 22.25268555 C-8.49365325 14.86164318 -4.22139429 7.44643465 0 0 Z " fill="#FDFDFE" transform="translate(139,90)"/>
</svg>